<?xml version="1.0" encoding="UTF-8" standalone="no"?>
<!-- Created with Inkscape (http://www.inkscape.org/) -->

<svg
   version="1.1"
   id="svg1"
   width="344.09698"
   height="393.86606"
   viewBox="0 0 344.09698 393.86606"
   xml:space="preserve"
   xmlns="http://www.w3.org/2000/svg"
   xmlns:svg="http://www.w3.org/2000/svg"><defs
     id="defs1" /><g
     id="g181"
     transform="translate(-796.53119,-355.52779)"
     style="display:inline"><path
       style="display:inline;opacity:1;fill:#ff9955;fill-opacity:1;stroke:none;stroke-width:3.434;stroke-linecap:round;stroke-linejoin:round;stroke-dasharray:none;stroke-opacity:1"
       d="m 905.92032,718.04103 c -0.14747,7.81601 -0.88483,7.81601 -0.88483,7.81601 l -3.98174,5.45647 -5.89888,12.38764 0.29494,2.06461 17.84411,1.47472 10.32304,-1.0323 10.76545,0.58988 3.6868,-5.16151 1.32725,-7.3736 1.0323,-2.6545 -3.09691,-5.75141 -19.31883,-6.34129 z"
       id="path9" /><path
       style="display:inline;opacity:1;fill:#ff9955;fill-opacity:1;stroke:none;stroke-width:3.434;stroke-linecap:round;stroke-linejoin:round;stroke-dasharray:none;stroke-opacity:1"
       d="m 1112.8519,623.03354 5.5648,3.74774 5.4513,2.15779 5.6784,1.81709 5.3377,2.15779 3.7477,3.97487 -1.2492,4.31558 -1.1357,4.99699 1.4764,5.56483 1.0221,3.86131 -2.2714,3.5206 -12.3789,4.99699 -22.6,4.42915 -6.814,-5.79196 3.6341,-21.01007 10.6754,-17.94373 z"
       id="path10" /><path
       style="display:inline;opacity:1;fill:#ffffff;fill-opacity:1;stroke:#000000;stroke-width:3.434;stroke-linecap:round;stroke-linejoin:round;stroke-dasharray:none;stroke-opacity:1"
       d="m 920.28802,429.41588 -19.44818,-22.55989 -26.44953,-4.66756 -31.11709,10.11305 -16.33647,53.67699 4.66756,48.23149 v 23.33782 l 19.44818,33.45088 6.22342,14.00269 21.00404,12.44683 3.88964,93.35128 66.12382,31.89502 24.11575,-2.33378 16.33647,-3.88963 22.55987,-15.55855 25.6716,-28.00538 10.1131,-4.66757 27.2274,1.55586 17.1144,-2.33379 5.4455,-33.45087 -7.7792,-25.6716 -48.2315,-77.01481 c 0,0 20.2261,-16.33647 13.2247,-42.00807 -7.0013,-25.6716 -26.4495,-45.89772 -26.4495,-45.89772 l -20.2261,-51.3432 -35.78467,-24.89367 -38.89637,3.11171 -12.44684,33.45087 z"
       id="path8" /><path
       style="display:inline;opacity:1;fill:#ff9955;fill-opacity:1;stroke:none;stroke-width:3.434;stroke-linecap:round;stroke-linejoin:round;stroke-dasharray:none;stroke-opacity:1"
       d="m 919.6227,485.83634 1.42153,-3.06176 10.93488,-10.93487 3.8272,-1.85893 10.33345,-1.20284 11.26292,2.07763 0.65609,1.58556 -3.28046,4.75667 -17.38644,9.18529 -15.03545,1.09349 z"
       id="path11" /><path
       style="display:inline;fill:#40352d;fill-opacity:1"
       d="m 929.5,748.316 c -4.64211,-1.10714 -5.84563,-1.1274 -14.22105,-0.2394 -3.42158,0.36278 -7.02158,0.27547 -8,-0.19401 -0.97842,-0.46948 -4.25395,-0.86012 -7.27895,-0.8681 -7.23273,-0.0191 -7.9074,-2.85823 -2.70198,-11.37057 8.57414,-14.02119 8.63129,-15.08148 0.95198,-17.66181 -24.69729,-8.29857 -34.67004,-44.57162 -26.20368,-95.30852 2.56441,-15.36796 0.80017,-16.70129 -10.04632,-7.59251 -11.85862,9.95876 -55.20182,14.68455 -62.99852,6.86885 -2.68298,-2.68952 -3.40751,-14.4439 -1.03646,-16.81495 0.56924,-0.56924 1.03498,-2.00021 1.03498,-3.17994 0,-2.46658 6.56373,-12.92214 10.10767,-16.10079 2.2329,-2.00275 28.23114,-11.3693 35.78105,-12.89107 3.38873,-0.68303 3.38873,-0.68303 -3.03993,-4.3231 -27.57439,-15.61336 -36.72168,-35.3632 -23.26543,-50.23219 1.43058,-1.58077 1.3068,-2.54469 -1.42145,-11.06972 -5.20937,-16.27783 -7.344,-45.0545 -4.2162,-56.83817 5.98241,-22.53811 17.09164,-40.32976 32.55429,-52.13633 3.85,-2.93968 9.475,-7.34224 12.5,-9.78345 3.025,-2.44122 9.23747,-6.87758 13.80549,-9.85858 7.55622,-4.93104 8.14261,-5.5403 6.5,-6.7535 -2.28306,-1.68622 -1.17518,-2.74065 4.61266,-4.39008 4.41815,-1.2591 4.41815,-1.2591 1.25,-2.79348 -4.79905,-2.32425 -4.09134,-4.27143 1.58185,-4.35226 4.15358,-0.0592 4.46748,-0.20393 2.5,-1.15281 -5.97401,-2.88116 -1.05338,-4.03102 7.89978,-1.84603 6.24471,1.524 11.05466,1.75858 7.10022,0.34628 -0.6875,-0.24553 -1.25,-0.85893 -1.25,-1.36309 0,-1.20012 4.54415,-1.17998 6.76357,0.03 5.7655,3.14317 11.67794,4.04559 16.64536,2.54061 9.66783,-2.92906 40.88641,-1.05447 43.13906,2.59039 0.31352,0.50729 1.37646,0.92235 2.36209,0.92235 0.98562,0 3.80165,1.06852 6.25783,2.37448 2.45618,1.30597 5.47867,2.69596 6.71663,3.08888 3.40196,1.07973 17.07716,9.31904 21.68246,13.06367 16.178,13.15459 27.3087,32.71848 32.8786,57.78887 0.4352,1.95883 1.6468,3.2426 3.9809,4.21784 6.2964,2.63078 14.8596,13.84173 17.5674,22.99906 1.1925,4.03279 1.1925,4.03279 9.3212,-3.83787 16.4368,-15.91515 25.9132,-16.96865 32.7145,-3.63692 3.5351,6.92944 2.0706,11.93627 -6.6079,22.59121 -3.1243,3.83578 -4.5686,6.75414 -5.4601,11.03303 -3.1279,15.01295 -12.9869,39.43098 -18.2722,45.25548 -2.602,2.86736 -6.0262,8.11577 -5.5193,8.45952 2.242,1.52042 20.1966,8.60275 21.809,8.60275 18.2326,0 33.6885,34.64459 29.4444,66 -0.7319,5.407 1.2368,7.00575 11.0765,8.99502 9.0527,1.83018 13.4984,7.3061 10.1189,12.4639 -1.9871,3.03267 -2.075,5.91768 -0.227,7.45139 8.9861,7.45781 -10.4384,18.39323 -34.5437,19.4471 -4.5915,0.20074 -13.616,0.95832 -20.0543,1.68352 -9.2677,1.04389 -13.3296,1.07142 -19.5,0.1322 -15.7419,-2.39615 -25.7832,0.26972 -31.9136,8.4728 -6.5428,8.75485 -30.6262,31.33412 -36.8803,34.5769 -10.89425,5.64875 -37.54165,11.76803 -51.27305,11.7743 -6.27306,0.003 -6.27306,0.003 -4.61135,2.53895 2.21885,3.3864 -2.43576,21.81816 -5.39128,21.34892 -0.39838,-0.0633 -2.52432,-0.5443 -4.72432,-1.069 z m -1.76151,-3.14567 c 7.49283,-0.073 10.83447,-3.12887 8.90885,-8.14696 -0.29424,-0.76679 -0.16975,-1.53573 0.27665,-1.70876 6.63763,-2.57288 -0.16415,-9.39678 -10.17603,-10.20914 -4.58045,-0.37165 -10.78506,-1.32958 -13.78802,-2.12873 -3.00297,-0.79915 -5.52236,-1.45834 -5.59865,-1.46487 -0.0763,-0.007 -0.42603,1.51968 -0.7772,3.39158 -0.35117,1.8719 -1.18875,3.62482 -1.86129,3.89538 -1.74931,0.70375 -9.34837,15.40893 -8.43482,16.32248 0.41926,0.41926 2.30931,0.20288 4.20013,-0.48085 2.88888,-1.04463 3.88286,-0.99264 6.22486,0.32561 2.07576,1.16839 4.19067,1.40363 8.28703,0.92177 3.025,-0.35584 8.75732,-0.67872 12.73849,-0.71751 z m 57.69486,-30.17906 c 4.35299,-1.18736 7.63622,-3.08677 6.80152,-3.93481 -0.40418,-0.41063 -0.0599,-0.6505 0.76513,-0.53305 2.92822,0.41689 4.09454,-0.0578 7.2784,-2.96237 1.7719,-1.61643 5.4002,-4.87893 8.0629,-7.25 2.6627,-2.37107 6.0377,-5.62412 7.5,-7.22898 1.4623,-1.60487 3.4462,-3.61738 4.4087,-4.47225 1.9495,-1.73145 2.3988,-3.62885 0.5955,-2.51432 -0.6991,0.43207 -0.8837,0.27535 -0.468,-0.39731 0.3776,-0.61096 1.3522,-0.85538 2.1659,-0.54317 1.0514,0.40347 1.2992,0.0983 0.8566,-1.05501 -0.4592,-1.19661 -0.1996,-1.46032 0.9887,-1.00435 1.1827,0.45387 1.6113,0.0295 1.6113,-1.59565 0,-1.38107 0.4787,-2.0303 1.2723,-1.72574 0.6998,0.26854 2.5658,-1.23129 4.1467,-3.33295 5.9427,-7.90044 14.1839,-9.52129 39.2168,-7.71308 14.978,1.08191 15.554,0.51861 21.4971,-21.02166 2.73,-9.89481 -0.6161,-23.83024 -8.6145,-35.87668 -1.9351,-2.91452 -3.5184,-5.61649 -3.5184,-6.00439 0,-1.91657 -14.203,-23.96417 -21.4681,-33.3255 -1.9208,-2.475 -5.6282,-7.425 -8.2385,-11 -2.6104,-3.575 -5.2413,-6.95 -5.8465,-7.5 -0.6051,-0.55 -5.0345,-5.84472 -9.8431,-11.76605 -4.8086,-5.92132 -9.1616,-10.50727 -9.6733,-10.19098 -2.6209,1.6198 -0.292,-1.27386 4.6896,-5.82671 26.7302,-24.42993 18.1259,-73.9229 -12.8701,-74.02977 -6.8693,-0.0237 -5.7376,2.19087 -6.7386,-13.18649 -2.5397,-39.01694 -32.04741,-70.28013 -58.48507,-61.96446 C 945.01762,379.08278 934,388.74212 934,392.40118 c 0,1.16634 -0.85994,4.02821 -1.91099,6.35972 -1.81654,4.02959 -3.33387,10.01806 -4.49467,17.7391 -0.81177,5.39955 2.54489,27.69976 5.34352,35.5 3.57324,9.95921 3.5608,12.19077 -0.0785,14.07271 -3.61821,1.87104 -5.30369,0.69034 -6.52765,-4.57271 -0.75491,-3.24612 -7.33401,-15.37539 -13.83568,-25.50757 -6.6994,-10.44032 -19.40389,-21.71126 -25.77494,-22.86655 -1.40014,-0.2539 -3.56503,-1.00716 -4.81088,-1.67391 -30.70985,-16.43542 -65.4471,70.81558 -37.07811,93.13063 2.52252,1.98422 2.537,2.06882 0.80768,4.71892 -11.02133,16.88959 -10.0357,38.73197 2.30308,51.03806 3.12149,3.11323 6.32382,6.58099 7.11627,7.70613 2.42995,3.45009 8.08061,6.21255 16.06284,7.8527 4.19211,0.86137 8.31289,1.83125 9.15728,2.15527 1.32228,0.50741 1.60173,5.0533 2.01433,32.76773 0.76489,51.37836 3.11687,58.66766 26.1204,80.95272 20.07897,19.45185 51.72331,27.91222 69.83598,18.67121 3.12245,-1.59307 3.75,-1.6649 3.75,-0.42929 0,0.81617 -0.70458,1.48395 -1.56574,1.48395 -3.01974,0 -5.86317,2.10276 -4.31936,3.19423 1.02605,0.72542 0.80149,0.85134 -0.86628,0.48578 -1.23826,-0.27142 -2.01276,-0.10739 -1.7211,0.36451 0.6003,0.97132 7.4904,0.65115 11.90583,-0.55325 z M 931,489.44896 c -2.475,-0.44039 -6.42662,-0.83407 -8.78138,-0.87484 -2.79484,-0.0484 -4.47759,-0.58542 -4.84647,-1.5467 -0.6165,-1.60657 12.27079,-16.47833 14.30642,-16.50942 0.64822,-0.01 1.91586,-0.75529 2.817,-1.65642 2.51096,-2.51097 25.29998,-0.47492 26.23974,2.34435 1.11926,3.35779 -20.28116,20.02933 -24.60615,19.1689 -0.34604,-0.0688 -2.65416,-0.48548 -5.12916,-0.92587 z m -7.49794,-4.58812 c 1.09189,-0.419 1.28365,-0.87524 0.5567,-1.32452 -0.62127,-0.38397 0.47667,-1.172 2.49671,-1.79196 3.00466,-0.92216 3.51532,-0.87122 3.06371,0.30565 -0.42412,1.10525 0.51458,1.38845 4.31813,1.30276 5.55525,-0.12516 8.36721,-1.33293 6.26536,-2.69104 -1.02239,-0.66061 -0.92973,-1.13747 0.43723,-2.25 1.53603,-1.25015 1.6595,-1.21143 1.07872,0.33827 -0.76127,2.03129 -0.66542,2.06047 2.63967,0.80388 1.46296,-0.55622 2.62309,-1.89557 2.8151,-3.25 0.24733,-1.74463 0.87278,-2.22794 2.57661,-1.99102 1.2375,0.17207 2.25,-0.16543 2.25,-0.75 0,-0.58457 0.48032,-1.06286 1.06739,-1.06286 0.62694,0 0.80739,0.92844 0.43731,2.25 -0.61014,2.17884 -0.567,2.17141 1.36422,-0.23506 2.5717,-3.20456 2.82901,-3.07722 -8.0364,-3.97725 -10.78864,-0.89367 -11.1612,-0.74795 -20.08252,7.85494 -6.54528,6.31166 -7.42966,8.07288 -3.24794,6.46821 z M 1124,662.30955 c 14.6802,-5.22494 14.8643,-5.39279 12.1229,-11.05567 -2.1963,-4.53704 -1.7799,-8.77634 1.2397,-12.61842 1.4036,-1.78596 -3.4591,-6.13546 -6.8593,-6.13546 -1.3119,0 -2.6634,-0.45 -3.0033,-1 -0.3399,-0.55 -1.3856,-1 -2.3238,-1 -0.9382,0 -3.3663,-0.88996 -5.3958,-1.9777 -2.2082,-1.18353 -3.9326,-1.58509 -4.2942,-1 -0.3323,0.53774 -1.5042,0.9777 -2.6042,0.9777 -1.2318,0 -1.7319,-0.43393 -1.3018,-1.12973 0.415,-0.6716 0.1638,-0.9516 -0.6196,-0.69048 -0.7247,0.24159 -1.7999,1.29437 -2.3892,2.33953 -0.5893,1.04515 -2.0214,2.68935 -3.1825,3.65377 -6.4609,5.36661 -10.6019,28.47108 -5.9385,33.13441 2.3422,2.34226 12.0117,0.96451 24.5496,-3.49795 z"
       id="path3" /><path
       style="display:inline;opacity:1;fill:#000000;fill-opacity:1;fill-rule:nonzero;stroke:none;stroke-width:1.934;stroke-opacity:1"
       d="m 867.04383,500.74166 c 0.0856,0.0313 0.27588,0.0161 0.66695,-0.37634 0.37815,-0.37947 0.93601,-1.11606 1.49677,-1.98207 0.24772,-0.38256 0.5117,-0.80823 0.81558,-1.29322 1.41639,-2.26054 3.46397,-5.40939 6.62261,-8.13477 1.52516,-1.31595 3.32561,-2.54302 5.39125,-3.5617 2.11609,-1.04356 4.39364,-1.81234 6.85071,-2.30629 1.05261,-0.2116 2.11483,-0.36825 3.18946,-0.4784 2.57813,-0.26425 5.37213,-0.29288 8.55015,0.11335 3.1244,0.39938 5.83263,1.12812 7.52048,1.66869 -1.62152,-0.70013 -4.22381,-1.78858 -7.33761,-2.60595 -3.13653,-0.82333 -6.12454,-1.19468 -8.86086,-1.10586 -1.15267,0.0374 -2.30375,0.15475 -3.44543,0.35293 -2.67048,0.46355 -5.1412,1.34256 -7.40119,2.52389 -2.20765,1.15397 -4.09494,2.53258 -5.72038,3.93506 -3.34778,2.88857 -5.77737,6.06082 -7.15914,8.53532 -0.29332,0.52529 -0.5343,1.01107 -0.72332,1.44911 -0.4477,1.03752 -0.64727,1.94783 -0.66782,2.51613 -0.0208,0.57545 0.13362,0.72152 0.21179,0.75012 z"
       id="path4" /><path
       style="display:inline;opacity:1;fill:#000000;fill-opacity:1;fill-rule:nonzero;stroke:none;stroke-width:1.934;stroke-opacity:1"
       d="m 867.04383,500.74166 c 0.0856,0.0313 0.27588,0.0161 0.66695,-0.37634 0.37815,-0.37947 0.93601,-1.11606 1.49677,-1.98207 0.24772,-0.38256 0.5117,-0.80823 0.81558,-1.29322 1.41639,-2.26054 3.46397,-5.40939 6.62261,-8.13477 1.52516,-1.31595 3.32561,-2.54302 5.39125,-3.5617 2.11609,-1.04356 4.39364,-1.81234 6.85071,-2.30629 1.05261,-0.2116 2.11483,-0.36825 3.18946,-0.4784 2.57813,-0.26425 5.37213,-0.29288 8.55015,0.11335 3.1244,0.39938 5.83263,1.12812 7.52048,1.66869 -1.62152,-0.70013 -4.22381,-1.78858 -7.33761,-2.60595 -3.13653,-0.82333 -6.12454,-1.19468 -8.86086,-1.10586 -1.15267,0.0374 -2.30375,0.15475 -3.44543,0.35293 -2.67048,0.46355 -5.1412,1.34256 -7.40119,2.52389 -2.20765,1.15397 -4.09494,2.53258 -5.72038,3.93506 -3.34778,2.88857 -5.77737,6.06082 -7.15914,8.53532 -0.29332,0.52529 -0.5343,1.01107 -0.72332,1.44911 -0.4477,1.03752 -0.64727,1.94783 -0.66782,2.51613 -0.0208,0.57545 0.13362,0.72152 0.21179,0.75012 z"
       id="path5"
       transform="matrix(-0.78717667,0.61672757,0.61672757,0.78717667,1376.8012,-476.9686)" /><path
       style="display:inline;opacity:1;fill:none;fill-opacity:1;stroke:#000000;stroke-width:3.434;stroke-linecap:round;stroke-linejoin:round;stroke-dasharray:none;stroke-opacity:1"
       d="m 878.17142,451.46232 c 0,0 -7.49409,3.86059 -9.31084,10.6734"
       id="path6" /><path
       style="display:inline;opacity:1;fill:none;fill-opacity:1;stroke:#000000;stroke-width:3.434;stroke-linecap:round;stroke-linejoin:round;stroke-dasharray:none;stroke-opacity:1"
       d="m 957.42713,419.6692 c 0,0 10.9005,-4.54188 15.66947,2.27094"
       id="path7" /></g></svg>
